<svg width="100" height="65" viewBox="0 0 100 65" fill="none" xmlns="http://www.w3.org/2000/svg">
<path d="M9.27075 14.1197C10.7216 14.1197 12.0563 14.3373 13.275 14.7726C14.5227 15.1788 15.5238 15.7446 16.2782 16.4701V22.3459C15.5238 21.8816 14.6678 21.4464 13.7103 21.0401C12.7527 20.6049 11.7226 20.3873 10.62 20.3873C9.92362 20.3873 9.29976 20.5323 8.74845 20.8225C8.22616 21.0837 7.96501 21.5044 7.96501 22.0847C7.96501 22.491 8.1246 22.7956 8.44378 22.9987C8.76296 23.2019 9.38681 23.4195 10.3153 23.6516L11.6646 23.9998C15.5238 24.9864 17.4534 27.061 17.4534 30.2238C17.4534 31.6747 17.0181 32.9659 16.1476 34.0975C15.3062 35.2001 14.189 36.0706 12.7962 36.709C11.4325 37.3183 9.95263 37.623 8.35673 37.623C6.70279 37.623 5.16492 37.3909 3.74312 36.9266C2.32131 36.4333 1.10262 35.8385 0.0870493 35.1421V29.3098C1.13164 29.9482 2.30681 30.485 3.61254 30.9202C4.9473 31.3555 6.13697 31.5731 7.18156 31.5731C8.02304 31.5731 8.63239 31.4715 9.0096 31.2684C9.41583 31.0653 9.61894 30.7026 9.61894 30.1803C9.61894 29.7741 9.38681 29.4694 8.92255 29.2663C8.45829 29.0342 7.79091 28.773 6.92042 28.4828L4.70066 27.7865C3.07574 27.2932 1.88607 26.5242 1.13164 25.4796C0.377213 24.406 0 23.1003 0 21.5624C0 20.0246 0.40623 18.7043 1.21869 17.6017C2.03115 16.4991 3.13377 15.6431 4.52656 15.0337C5.94837 14.4244 7.52976 14.1197 9.27075 14.1197Z" fill="black"/>
<path d="M9.03799 42.5781C10.7979 42.5781 12.3247 42.8432 13.6181 43.3733C14.9328 43.8822 15.9506 44.6031 16.6715 45.5361C17.4137 46.4691 17.7848 47.5505 17.7848 48.7804C17.7848 49.8618 17.5197 50.7948 16.9896 51.5794C16.4807 52.3639 15.8128 52.9894 14.9858 53.4559C15.6431 53.6892 16.2581 53.9966 16.8306 54.3783C17.4031 54.7388 17.859 55.2159 18.1983 55.8096C18.5587 56.4033 18.739 57.1773 18.739 58.1315C18.739 59.3189 18.3573 60.4321 17.5939 61.4712C16.8306 62.489 15.781 63.3159 14.4451 63.9521C13.1092 64.567 11.5825 64.8745 9.86496 64.8745C8.88956 64.8745 7.79754 64.8214 6.5889 64.7154C5.38025 64.6306 4.22462 64.514 3.12199 64.3655C2.04057 64.2171 1.16059 64.0687 0.482056 63.9203V43.4051C1.77552 43.1506 3.1432 42.9492 4.58509 42.8008C6.02698 42.6523 7.51128 42.5781 9.03799 42.5781ZM9.26064 47.9534C8.17922 47.9534 7.23563 48.0382 6.42986 48.2079V51.8656H9.41967C10.1194 51.8656 10.7131 51.696 11.2008 51.3567C11.6885 51.0174 11.9324 50.5191 11.9324 49.8618C11.9324 49.2893 11.6779 48.8334 11.169 48.4941C10.6813 48.1337 10.0452 47.9534 9.26064 47.9534ZM6.42986 59.2447C6.87515 59.3931 7.40526 59.4992 8.02019 59.5628C8.63511 59.6052 9.11221 59.6264 9.45148 59.6264C10.3209 59.6264 11.0206 59.4568 11.5507 59.1175C12.102 58.7782 12.3777 58.2799 12.3777 57.6226C12.3777 56.9865 12.0702 56.5306 11.4553 56.2549C10.8404 55.9792 10.0982 55.8414 9.22883 55.8414H6.42986V59.2447Z" fill="black"/>
<path d="M28.7697 43.3047C30.6982 43.3047 32.4124 43.7332 33.9123 44.5903C35.4122 45.4474 36.5773 46.6527 37.4077 48.2062C38.2648 49.7329 38.6933 51.5542 38.6933 53.6702V56.0406H24.752C25.0467 57.0317 25.6359 57.7682 26.5198 58.2503C27.4037 58.7325 28.4215 58.9735 29.5732 58.9735C31.1267 58.9735 32.4659 58.7592 33.5909 58.3307C34.7426 57.8754 35.5997 57.487 36.1622 57.1656V63.0715C35.4658 63.5001 34.5015 63.9286 33.2695 64.3572C32.0642 64.7857 30.6982 65 29.1715 65C27.7251 65 26.3189 64.7589 24.9529 64.2768C23.6137 63.7947 22.4084 63.0983 21.337 62.1876C20.2656 61.277 19.4219 60.1788 18.8059 58.8932C18.1899 57.5807 17.8818 56.1076 17.8818 54.4737C17.8818 52.4381 18.3506 50.5766 19.288 48.8892C20.2523 47.2018 21.5513 45.8492 23.1851 44.8314C24.8458 43.8136 26.7073 43.3047 28.7697 43.3047ZM28.5688 49.0097C27.6849 49.0097 26.9216 49.2508 26.2787 49.7329C25.6359 50.1882 25.1672 50.898 24.8726 51.8623H32.1445C32.1445 50.898 31.7695 50.1882 31.0196 49.7329C30.2964 49.2508 29.4795 49.0097 28.5688 49.0097Z" fill="black"/>
<path d="M46.8358 43.3047C47.9072 43.3047 48.9518 43.5457 49.9696 44.0278C51.0142 44.4832 51.8713 45.0724 52.5409 45.7956V43.9073H59.4513V64.3974H52.5409V60.9823C52.032 62.1073 51.2553 63.0581 50.2107 63.8349C49.1661 64.6116 47.9072 65 46.4341 65C44.9074 65 43.4744 64.6116 42.1352 63.8349C40.7959 63.0581 39.6978 61.8662 38.8407 60.2592C38.0104 58.6253 37.5952 56.5763 37.5952 54.1122C37.5952 51.8087 38.0104 49.8534 38.8407 48.2464C39.6978 46.6393 40.8227 45.4206 42.2155 44.5903C43.6351 43.7332 45.1752 43.3047 46.8358 43.3047ZM48.2822 50.0543C47.2912 50.0543 46.4608 50.4561 45.7912 51.2596C45.1484 52.0632 44.827 53.014 44.827 54.1122C44.827 55.2103 45.1618 56.1344 45.8314 56.8843C46.501 57.6343 47.3849 58.0093 48.4831 58.0093C49.0723 58.0093 49.675 57.862 50.291 57.5673C50.9071 57.2459 51.4293 56.7772 51.8579 56.1612C52.3132 55.5183 52.5409 54.7014 52.5409 53.7104V51.7417C51.9516 51.2596 51.282 50.8579 50.5321 50.5364C49.8089 50.215 49.0589 50.0543 48.2822 50.0543Z" fill="black"/>
<path d="M65.625 43.9073V46.559C66.2678 45.6751 66.9508 44.9117 67.674 44.2689C68.3972 43.6261 69.4417 43.3047 70.8077 43.3047C72.1738 43.3047 73.3924 43.6261 74.4638 44.2689C75.5352 44.8849 76.3789 45.809 76.9949 47.0411C77.6378 45.9697 78.4815 45.0858 79.5261 44.3894C80.5974 43.6662 81.7893 43.3047 83.1018 43.3047C85.191 43.3047 86.8918 44.0144 88.2042 45.434C89.5434 46.8536 90.213 48.9562 90.213 51.7417V64.3974H83.3027L83.2625 52.8265C83.2625 51.8087 82.9946 51.0989 82.459 50.6971C81.9501 50.2686 81.3474 50.0543 80.651 50.0543C80.035 50.0543 79.4993 50.2418 79.0439 50.6168C78.6154 50.9918 78.2404 51.4203 77.919 51.9024V64.3974H71.0086L70.9685 52.8265C70.9685 51.8087 70.7006 51.0989 70.1649 50.6971C69.656 50.2686 69.0534 50.0543 68.357 50.0543C67.7409 50.0543 67.2186 50.2552 66.7901 50.657C66.3883 51.032 66 51.4873 65.625 52.023V64.3974H58.7146V43.9073H65.625Z" fill="black"/>
<path d="M40.5448 14.7726V28.0911C40.5448 30.0933 40.0806 31.8052 39.152 33.227C38.2525 34.6488 37.0048 35.7369 35.4089 36.4914C33.813 37.2458 31.985 37.623 29.9248 37.623C27.8647 37.623 26.0366 37.2458 24.4407 36.4914C22.8448 35.7369 21.5826 34.6488 20.6541 33.227C19.7546 31.8052 19.3048 30.0933 19.3048 28.0911V14.7726H26.791L26.8346 26.089C26.8346 27.5978 27.0667 28.7005 27.531 29.3969C28.0242 30.0933 28.8222 30.4414 29.9248 30.4414C31.0274 30.4414 31.8109 30.0933 32.2751 29.3969C32.7684 28.7005 33.0151 27.5978 33.0151 26.089L33.0586 14.7726H40.5448Z" fill="black"/>
<path d="M51.8645 14.7726V17.6452C52.5609 16.6877 53.4024 15.8607 54.389 15.1643C55.4045 14.4679 56.6522 14.1197 58.1321 14.1197C60.3954 14.1197 62.2379 14.8887 63.6597 16.4265C65.1105 17.9644 65.8359 20.2422 65.8359 23.2599V36.9701H58.3497L58.3062 24.4351C58.3062 23.3324 58.0015 22.5635 57.3922 22.1283C56.7828 21.664 56.1009 21.4319 55.3465 21.4319C54.534 21.4319 53.8522 21.6495 53.3008 22.0847C52.7495 22.491 52.2708 22.9842 51.8645 23.5646V36.9701H44.3783V14.7726H51.8645Z" fill="black"/>
<path d="M69.6999 11.0972L69.983 2.68613L63.5866 6.6718L63.6163 0L57.6166 10.3918C63.2156 11.6874 65.9776 13.284 70.2352 17.6771L76.2349 7.28535L69.6999 11.0972Z" fill="url(#paint0_linear)"/>
<path d="M96.4174 57.2777C95.9578 57.2777 95.5026 57.3682 95.0779 57.5442C94.6532 57.7201 94.2674 57.9779 93.9423 58.3029C93.2859 58.9594 92.9171 59.8497 92.9171 60.778C92.9171 61.7064 93.2859 62.5967 93.9423 63.2531C94.2674 63.5781 94.6532 63.836 95.0779 64.0119C95.5026 64.1878 95.9578 64.2783 96.4174 64.2783C97.3458 64.2783 98.2361 63.9095 98.8925 63.2531C99.5489 62.5967 99.9177 61.7064 99.9177 60.778C99.9177 60.3183 99.8272 59.8632 99.6513 59.4385C99.4754 59.0138 99.2175 58.628 98.8925 58.3029C98.5675 57.9779 98.1816 57.7201 97.7569 57.5442C97.3323 57.3682 96.8771 57.2777 96.4174 57.2777ZM96.4174 63.5783C94.8738 63.5783 93.6172 62.3216 93.6172 60.778C93.6172 59.2344 94.8738 57.9778 96.4174 57.9778C97.9611 57.9778 99.2177 59.2344 99.2177 60.778C99.2177 62.3216 97.9611 63.5783 96.4174 63.5783ZM96.5049 61.2226H96.0009V62.3532H95.3673V59.2764H96.5084C96.869 59.2764 97.149 59.3569 97.3485 59.5179C97.5445 59.6824 97.6425 59.9029 97.6425 60.204C97.6425 60.414 97.597 60.589 97.506 60.729C97.415 60.869 97.2785 60.981 97.093 61.0615L97.758 62.3181V62.3532H97.079L96.5049 61.2226ZM96.0009 60.7115H96.5119C96.6694 60.7115 96.792 60.6695 96.8795 60.589C96.967 60.5085 97.009 60.3965 97.009 60.253C97.009 60.1095 96.9705 59.9974 96.8865 59.9134C96.806 59.8294 96.6799 59.7909 96.5084 59.7909H96.0009V60.7115Z" fill="black"/>
<defs>
<linearGradient id="paint0_linear" x1="66.9257" y1="0" x2="66.9257" y2="17.6771" gradientUnits="userSpaceOnUse">
<stop offset="0.427083" stop-color="#FFD540"/>
<stop offset="1" stop-color="#FF9A02"/>
</linearGradient>
</defs>
</svg>
