<svg width="23" height="23" viewBox="0 0 23 23" fill="none" xmlns="http://www.w3.org/2000/svg">
<path d="M20 0H16.625H5.875H2.5C1.83696 0 1.20107 0.263392 0.732233 0.732233C0.263392 1.20107 0 1.83696 0 2.5V5.875V16.75V20C0 20.663 0.263392 21.2989 0.732233 21.7678C1.20107 22.2366 1.83696 22.5 2.5 22.5H5.875H16.75H20C20.663 22.5 21.2989 22.2366 21.7678 21.7678C22.2366 21.2989 22.5 20.663 22.5 20V16.625V5.875V2.5C22.5 1.83696 22.2366 1.20107 21.7678 0.732233C21.2989 0.263392 20.663 0 20 0ZM15.75 17.5L11.25 13L6.75 17.5L5 15.75L9.5 11.25L5 6.75L6.75 5L11.25 9.5L15.75 5L17.5 6.75L13 11.25L17.5 15.75L15.75 17.5Z" fill="#EB5757"/>
</svg>
